<?xml version="1.0" encoding="UTF-8"?>
<svg version="1.1" xmlns="http://www.w3.org/2000/svg" width="240" height="220">
<path d="M0 0 C0.69591078 -0.00579339 1.39182157 -0.01158677 2.10882056 -0.01755571 C4.44067392 -0.0355922 6.77250319 -0.04648033 9.10440063 -0.05725098 C10.77683734 -0.06842946 12.44927183 -0.07994289 14.1217041 -0.09176636 C19.61671847 -0.12830455 25.11175559 -0.1535491 30.60684204 -0.1763916 C32.01139798 -0.1823104 32.01139798 -0.1823104 33.44432878 -0.18834877 C42.28440153 -0.2247788 51.1244824 -0.25620696 59.96460533 -0.27745819 C71.24921318 -0.30499095 82.53318972 -0.35567555 93.8175348 -0.43793249 C101.76340958 -0.49387808 109.70911396 -0.52271672 117.65517867 -0.5319314 C122.39435341 -0.53816622 127.13278771 -0.55608432 131.87174606 -0.60331726 C136.338824 -0.6472874 140.80476435 -0.65737991 145.27202225 -0.64268875 C146.90132699 -0.6430149 148.53068396 -0.65509347 150.15979004 -0.68053818 C163.28777391 -0.87456434 174.67084464 1.99008634 184.56387329 11.38220215 C192.95998138 21.24601037 196.73122772 30.76810757 196.43887329 43.6595459 C195.66190035 51.32681738 192.80962723 58.09078637 188.08340454 64.1673584 C187.64899048 64.79126465 187.21457642 65.4151709 186.76699829 66.0579834 C181.15331449 73.43034007 172.73569065 77.28326303 164.08340454 80.1673584 C161.48545771 80.29716446 158.90930086 80.37650721 156.30996704 80.41345215 C154.74746146 80.44639175 153.1849616 80.47960337 151.62246704 80.51306152 C149.16482479 80.56043717 146.70720553 80.60487756 144.24942017 80.64416504 C141.87352603 80.68400182 139.49810045 80.73551634 137.12246704 80.78845215 C136.02692001 80.80107338 136.02692001 80.80107338 134.90924072 80.81394958 C130.02031931 80.93175106 126.1421911 81.24884004 122.47088623 84.67001343 C120.35751845 88.4738895 120.66855478 92.06793919 120.69863892 96.35119629 C120.69326614 97.28020752 120.68789337 98.20921875 120.68235779 99.16638184 C120.67257657 101.18358849 120.66963667 103.20083724 120.67271423 105.21806526 C120.67719411 108.41828031 120.66318385 111.61794282 120.64431763 114.81809998 C120.60751154 121.62201032 120.59383607 128.42586319 120.58340454 135.2298584 C120.57130197 143.09263765 120.54956706 150.9551488 120.50340271 158.81780815 C120.48990479 161.95681879 120.49399186 165.09548441 120.49880981 168.23451233 C120.45524803 183.90704084 118.96568272 196.94490828 107.83340454 208.9173584 C103.74892388 212.75677022 99.04273328 215.59201566 94.08340454 218.1673584 C93.35895142 218.54634277 92.63449829 218.92532715 91.88809204 219.3157959 C87.71050962 220.58419836 83.67506245 220.49591483 79.33340454 220.4798584 C78.47746704 220.49597168 77.62152954 220.51208496 76.73965454 220.52868652 C66.1560595 220.5367044 58.09676004 217.03226198 50.08340454 210.1673584 C40.23292777 200.06256639 36.91413522 189.4798785 36.96987915 175.69543457 C36.96973312 174.74860809 36.9695871 173.80178162 36.96943665 172.82626343 C36.97013196 169.70426117 36.97790653 166.58231896 36.98574829 163.46032715 C36.98761382 161.29270968 36.98903709 159.12509179 36.99003601 156.95747375 C36.99385053 151.25781079 37.00367173 145.55817339 37.01473999 139.85852051 C37.02497701 134.04024603 37.02953854 128.22196741 37.03457642 122.40368652 C37.04529494 110.99156593 37.06235859 99.57946429 37.08340454 88.1673584 C36.42340454 87.8373584 35.76340454 87.5073584 35.08340454 87.1673584 C34.68121704 86.2082959 34.68121704 86.2082959 34.27090454 85.2298584 C32.62353972 82.36864582 31.22454741 82.1311332 28.08340454 81.1673584 C25.54744255 80.98223618 23.11359565 80.89020684 20.57949829 80.8939209 C19.10097541 80.87360887 17.62245986 80.8527577 16.14395142 80.8314209 C13.8427003 80.80899583 11.5417417 80.79241194 9.24038696 80.78649902 C-4.67118168 80.72639936 -16.40237193 79.19300277 -26.91659546 69.1673584 C-29.07641918 66.89007058 -31.15790596 64.57470489 -33.19003296 62.1829834 C-34.83939581 60.17656789 -34.83939581 60.17656789 -36.60409546 58.61657715 C-38.94501339 56.0318136 -38.64789378 52.50463322 -38.91659546 49.1673584 C-39.04292358 48.25341309 -39.16925171 47.33946777 -39.29940796 46.39782715 C-40.75402656 34.59065704 -38.00009142 24.71958986 -30.91659546 15.1673584 C-23.10427097 5.38010625 -12.43310793 0.08148926 0 0 Z M124.08340454 15.1673584 C125.08340454 17.1673584 125.08340454 17.1673584 125.08340454 17.1673584 Z M120.08340454 15.1673584 C118.10340454 15.8273584 116.12340454 16.4873584 114.08340454 17.1673584 C114.08340454 17.8273584 114.08340454 18.4873584 114.08340454 19.1673584 C113.42340454 19.1673584 112.76340454 19.1673584 112.08340454 19.1673584 C111.75340454 18.5073584 111.42340454 17.8473584 111.08340454 17.1673584 C110.42340454 17.4973584 109.76340454 17.8273584 109.08340454 18.1673584 C107.60854135 18.26280181 106.12945095 18.29637298 104.65150452 18.29866028 C103.71937637 18.30266846 102.78724823 18.30667664 101.82687378 18.31080627 C100.28794464 18.3100132 100.28794464 18.3100132 98.71792603 18.3092041 C97.6396907 18.31267853 96.56145538 18.31615295 95.45054626 18.31973267 C93.10206559 18.32709961 90.75357792 18.33243997 88.40508842 18.33602333 C84.68485215 18.34317743 80.96474865 18.35883768 77.24455261 18.37736511 C66.66439196 18.4298737 56.0843404 18.47778649 45.50405884 18.49328613 C39.0371545 18.50338214 32.57058096 18.53275301 26.10380745 18.57460594 C23.64115975 18.58690237 21.17846528 18.5920397 18.71578789 18.58980751 C15.26171638 18.58744795 11.80858853 18.6096742 8.35464478 18.6373291 C6.83697006 18.62742699 6.83697006 18.62742699 5.28863525 18.61732483 C-1.88063542 18.71122868 -8.37511464 19.89296675 -13.79786015 24.90674305 C-18.86578708 30.43670657 -20.34347254 35.22422373 -20.16659546 42.6751709 C-19.52650999 49.05602296 -16.30341468 53.67852012 -11.91659546 58.1673584 C-5.89128681 61.7333574 -0.89887174 62.30983019 5.99746704 62.3782959 C7.57950826 62.40638584 9.16153936 62.43505042 10.74356079 62.4642334 C13.21832763 62.50527593 15.69291 62.54219229 18.1678772 62.56872559 C41.61325711 62.84140095 41.61325711 62.84140095 49.68106079 70.49157715 C55.21887049 77.10918261 55.23146798 85.40050873 55.24111938 93.58825684 C55.2462001 94.53038025 55.25128082 95.47250366 55.2565155 96.44317627 C55.26719923 98.48548205 55.27582721 100.52779939 55.28263474 102.57012177 C55.29445448 105.80753119 55.31391586 109.04480905 55.33575439 112.28216553 C55.3972634 121.48571367 55.45136887 130.68924782 55.48477173 139.89294434 C55.50576701 145.52686236 55.54110904 151.16053928 55.58552933 156.79431915 C55.59965028 158.93598841 55.6084029 161.07770031 55.61158371 163.21941376 C55.61651616 166.22282479 55.63973453 169.2256008 55.66690063 172.22888184 C55.6638945 173.1050415 55.66088837 173.98120117 55.65779114 174.88391113 C55.75071312 181.83428955 57.15209348 187.89898584 60.70840454 193.9173584 C65.96895586 198.9010386 70.87427767 201.47435506 78.20840454 201.6673584 C84.748808 201.35986802 88.84285004 200.15330443 93.83340454 195.7298584 C102.95553505 185.34076532 101.36671182 172.47536398 101.35779953 159.31541061 C101.35682533 156.1362649 101.3698796 152.95744903 101.38677979 149.77835083 C101.43279617 140.74723789 101.45766485 131.71616292 101.46426392 122.68493652 C101.469289 117.14132935 101.49357969 111.59807275 101.52959061 106.0545845 C101.53935558 103.95198296 101.54173869 101.84933303 101.53641891 99.74671555 C101.52931731 96.80370477 101.54669132 93.86173567 101.56924438 90.91882324 C101.5569857 89.63274925 101.5569857 89.63274925 101.54447937 88.32069397 C101.64467018 80.93399014 103.73515914 75.00997126 108.45840454 69.2923584 C115.78038926 63.36503744 123.27620561 63.04771359 132.39590454 62.9564209 C133.98185261 62.92836621 135.56778999 62.89970185 137.15371704 62.8704834 C139.62214 62.82922842 142.09036011 62.79228432 144.55899048 62.76599121 C146.96336506 62.73824475 149.36687017 62.69240146 151.77090454 62.6439209 C152.86495605 62.6390416 152.86495605 62.6390416 153.98110962 62.63406372 C161.36312619 62.45876321 167.09722186 59.88860035 172.57168579 54.8939209 C176.57982708 50.31614712 177.7436935 44.50465074 177.48574829 38.53063965 C176.52055941 32.86132633 174.22795442 28.02271329 169.85293579 24.2376709 C163.71583486 20.05282883 159.08845981 19.02164364 151.69668579 19.06970215 C150.87967697 19.0711171 150.06266815 19.07253204 149.22090149 19.07398987 C146.61253186 19.07958546 144.00424821 19.09213711 141.39590454 19.1048584 C139.62702557 19.10987397 137.85814526 19.11443678 136.08926392 19.11853027 C131.75394435 19.12955344 127.41868902 19.14681502 123.08340454 19.1673584 C123.41340454 18.5073584 123.74340454 17.8473584 124.08340454 17.1673584 C123.09340454 17.1673584 122.10340454 17.1673584 121.08340454 17.1673584 C120.75340454 16.5073584 120.42340454 15.8473584 120.08340454 15.1673584 Z " fill="#916475" transform="translate(40.916595458984375,-0.1673583984375)"/>
<path d="M0 0 C1.3804728 0.00028249 2.76094575 0.00012294 4.14141846 -0.0004425 C7.86811193 -0.00072808 11.59477287 0.00512986 15.32145882 0.01213145 C19.22386635 0.01840492 23.12627472 0.01897194 27.02868652 0.02015686 C34.40911484 0.02325843 41.78952824 0.03145594 49.16995001 0.04150635 C57.57626131 0.05270402 65.98257335 0.05818713 74.38889027 0.06320179 C91.67268024 0.07363958 108.95645573 0.0912162 126.24023438 0.11352539 C120.80753785 5.63366443 120.80753785 5.63366443 117.72460938 7.17602539 C117.11359375 7.49829102 116.50257813 7.82055664 115.87304688 8.15258789 C114.60542669 8.79954757 113.33450023 9.44006507 112.06054688 10.07446289 C108.22071403 12.09793471 108.22071403 12.09793471 106.31835938 15.86352539 C106.29257813 16.60602539 106.26679688 17.34852539 106.24023438 18.11352539 C105.25023437 17.78352539 104.26023438 17.45352539 103.24023438 17.11352539 C102.58023438 17.44352539 101.92023438 17.77352539 101.24023438 18.11352539 C99.76537118 18.2089688 98.28628078 18.24253997 96.80833435 18.24482727 C95.87620621 18.24883545 94.94407806 18.25284363 93.98370361 18.25697327 C92.44477448 18.25618019 92.44477448 18.25618019 90.87475586 18.25537109 C89.79652054 18.25884552 88.71828522 18.26231995 87.6073761 18.26589966 C85.25889543 18.2732666 82.91040775 18.27860696 80.56191826 18.28219032 C76.84168199 18.28934442 73.12157849 18.30500468 69.40138245 18.3235321 C58.82122179 18.3760407 48.24117023 18.42395348 37.66088867 18.43945312 C31.19398433 18.44954913 24.7274108 18.47892 18.26063728 18.52077293 C15.79798958 18.53306936 13.33529511 18.53820669 10.87261772 18.5359745 C7.41854621 18.53361494 3.96541836 18.55584119 0.51147461 18.58349609 C-0.50030853 18.57689468 -1.51209167 18.57029327 -2.55453491 18.56349182 C-9.88433094 18.65949825 -16.43878323 19.97904744 -21.91601562 25.14868164 C-22.35945313 25.81770508 -22.80289062 26.48672852 -23.25976562 27.17602539 C-23.72382813 27.84762695 -24.18789063 28.51922852 -24.66601562 29.21118164 C-27.57561456 34.27180549 -27.68695185 40.56158404 -26.22851562 46.14868164 C-24.15387334 51.2789112 -21.54940656 55.06956818 -16.75976562 57.86352539 C-11.67482101 59.98225231 -7.15275477 60.29568163 -1.66992188 60.39477539 C-0.88838242 60.41318481 -0.10684296 60.43159424 0.69837952 60.45056152 C3.19142328 60.50915881 5.68453443 60.5620299 8.17773438 60.61352539 C11.45781924 60.68141766 14.73769976 60.75511122 18.01757812 60.83227539 C18.76667953 60.84585083 19.51578094 60.85942627 20.2875824 60.87341309 C24.04748836 60.96226116 27.58081477 61.22464855 31.24023438 62.11352539 C31.32154901 63.55008393 31.37956996 64.98797369 31.42773438 66.42602539 C31.47994141 67.62678711 31.47994141 67.62678711 31.53320312 68.85180664 C31.16651382 71.68264806 30.23754035 72.15490815 28.24023438 74.11352539 C27.53453705 76.10008919 26.86435253 78.09984196 26.24023438 80.11352539 C20.76277571 80.06896822 15.28642591 79.99872052 9.80957031 79.90600586 C7.95158782 79.87801063 6.09349098 79.85669094 4.23535156 79.8425293 C-10.6739802 79.72216332 -23.42845674 78.91828647 -34.75976562 68.11352539 C-36.91958935 65.83623757 -39.00107612 63.52087188 -41.03320312 61.12915039 C-42.68256598 59.12273488 -42.68256598 59.12273488 -44.44726562 57.56274414 C-46.78818356 54.97798059 -46.49106395 51.45080021 -46.75976562 48.11352539 C-46.88609375 47.19958008 -47.01242188 46.28563477 -47.14257812 45.34399414 C-48.59472476 33.55688902 -45.86057684 23.64017935 -38.75976562 14.11352539 C-32.67210469 6.80576363 -25.92638348 1.43142719 -16.29902649 0.31178474 C-10.87580686 -0.11164714 -5.43627739 -0.0152654 0 0 Z " fill="#3983AC" transform="translate(48.759765625,0.886474609375)"/>
<path d="M0 0 C0.85655182 -0.0033284 1.71310364 -0.0066568 2.59561157 -0.01008606 C4.41643741 -0.0151582 6.23727257 -0.0174943 8.05810547 -0.01733398 C10.80582765 -0.01949528 13.55313153 -0.03757692 16.30078125 -0.05664062 C34.71079612 -0.11660025 51.10096771 1.51570019 65.4765625 14.16796875 C76.00243909 25.14213651 80.64830934 37.02717751 81.08984375 52 C81.12717117 53.11067337 81.1644986 54.22134674 81.20295715 55.36567688 C81.67713394 71.35573746 81.66364184 87.35611623 81.66186523 103.35180664 C81.66176206 107.98689881 81.67561997 112.62184311 81.69263744 117.25689983 C81.70375299 120.8677693 81.70578488 124.47860225 81.70525551 128.08948708 C81.70642832 129.80022522 81.71081047 131.51096454 81.71858788 133.22168541 C81.72841655 135.59801316 81.72550286 137.97400838 81.71948242 140.3503418 C81.72510193 141.04173752 81.73072144 141.73313324 81.73651123 142.44548035 C81.70020845 148.10226352 81.15025264 153.2481477 77.3515625 157.60546875 C73.60601509 159.64109234 70.64917804 160.15422333 66.4765625 159.16796875 C62.95624509 156.47155542 61.25366528 154.48525841 60.4765625 150.16796875 C60.38352976 148.65647985 60.3392393 147.14155881 60.33180237 145.62722778 C60.32490387 144.72167145 60.31800537 143.81611511 60.31089783 142.88311768 C60.30828445 141.89704529 60.30567108 140.9109729 60.30297852 139.89501953 C60.2962915 138.85068756 60.28960449 137.80635559 60.28271484 136.7303772 C60.26866813 134.46269012 60.25677287 132.19498893 60.24676704 129.92728043 C60.23035283 126.33793257 60.20711482 122.74868926 60.18186951 119.15939331 C60.11110368 108.95413422 60.05096471 98.74883266 59.99975586 88.54345703 C59.96795515 82.30127684 59.92667772 76.05921731 59.87956047 69.81713486 C59.86354843 67.43852789 59.85122319 65.05989314 59.84265327 62.68124771 C59.8304921 59.35394291 59.80633858 56.02692156 59.77954102 52.69970703 C59.77895187 51.71768311 59.77836273 50.73565918 59.77775574 49.72387695 C59.72533048 44.80845228 59.40787424 40.77794485 57.4765625 36.16796875 C56.8165625 36.16796875 56.1565625 36.16796875 55.4765625 36.16796875 C55.3940625 35.61109375 55.3115625 35.05421875 55.2265625 34.48046875 C53.5332484 29.25941696 50.31338757 26.87662033 45.6015625 24.41796875 C38.72428768 21.01166962 31.95531789 21.0263546 24.44140625 20.9921875 C22.47850473 20.96900407 20.51561404 20.94488736 18.55273438 20.91992188 C15.47607987 20.88473902 12.39982986 20.85540692 9.32299805 20.84204102 C6.34114659 20.82657375 3.36045197 20.78639498 0.37890625 20.7421875 C-0.99782005 20.74505013 -0.99782005 20.74505013 -2.40235901 20.74797058 C-6.62576322 20.66709462 -8.9283223 20.54004053 -12.57983398 18.25708008 C-15.07338807 15.57684615 -15.47344669 14.60122244 -15.8984375 10.91796875 C-15.40416454 5.97523917 -13.98515449 4.62968574 -10.5234375 1.16796875 C-7.24223338 -0.47263331 -3.60647212 0.00485302 0 0 Z " fill="#977A81" transform="translate(48.5234375,29.83203125)"/>
<path d="M0 0 C0.69591078 -0.00664781 1.39182157 -0.01329562 2.10882056 -0.02014488 C4.44072 -0.0398287 6.77242737 -0.04521526 9.10440063 -0.05052185 C10.77684022 -0.06141825 12.44927491 -0.0730901 14.1217041 -0.08547974 C18.66770652 -0.11599502 23.21365827 -0.13300785 27.75974226 -0.14569592 C30.60419574 -0.15378581 33.44863477 -0.16396695 36.29307938 -0.17471123 C45.20448044 -0.20744326 54.11584627 -0.23133346 63.02729928 -0.24352509 C73.29101771 -0.25775138 83.55404515 -0.30152619 93.8175348 -0.37102658 C101.76342555 -0.42296329 109.70912089 -0.44771068 117.65517867 -0.45234722 C122.3943278 -0.45573263 127.13277874 -0.47038861 131.87174606 -0.51362801 C136.33885469 -0.55367021 140.80478671 -0.55965919 145.27202225 -0.54072762 C146.90131486 -0.53947159 148.53067082 -0.54993944 150.15979004 -0.57374191 C163.28385333 -0.75436439 174.67421289 2.11353856 184.56387329 11.50245667 C192.95998138 21.36626489 196.73122772 30.88836209 196.43887329 43.77980042 C195.66190035 51.44707189 192.80962723 58.21104089 188.08340454 64.28761292 C187.72730103 64.95575012 187.37119751 65.62388733 187.00430298 66.31227112 C185.25243259 69.05493814 183.85556218 70.53596231 181.08340454 72.28761292 C174.90564771 73.53872965 168.38175746 72.71016438 162.14590454 72.28761292 C160.39544067 72.19919093 158.6447832 72.1145168 156.89395142 72.03370667 C152.62030926 71.82830196 148.35249804 71.57185961 144.08340454 71.28761292 C144.08340454 70.62761292 144.08340454 69.96761292 144.08340454 69.28761292 C142.96965454 69.49386292 141.85590454 69.70011292 140.70840454 69.91261292 C136.36407488 70.47292398 132.77031524 69.72727825 128.53262329 68.77980042 C122.11129008 67.48938896 116.88762697 68.00220399 111.08340454 71.28761292 C105.82230214 76.38558036 104.79619426 80.83737634 104.02090454 87.91261292 C103.88458618 89.11530823 103.88458618 89.11530823 103.74551392 90.34230042 C103.52142801 92.3236916 103.30197704 94.30560596 103.08340454 96.28761292 C103.74340454 96.61761292 104.40340454 96.94761292 105.08340454 97.28761292 C104.42340454 97.28761292 103.76340454 97.28761292 103.08340454 97.28761292 C103.43402954 98.40136292 103.78465454 99.51511292 104.14590454 100.66261292 C105.08340454 104.28761292 105.08340454 104.28761292 104.08340454 106.28761292 C103.98706745 107.89862361 103.95265339 109.51356942 103.95059204 111.12745667 C103.94930298 112.10907776 103.94801392 113.09069885 103.94668579 114.10206604 C103.95055298 115.13267151 103.95442017 116.16327698 103.95840454 117.22511292 C103.95453735 118.2209137 103.95067017 119.21671448 103.94668579 120.24269104 C103.95440157 126.18769928 104.29587842 132.00419138 104.88760376 137.91773987 C105.11279075 140.64328863 105.01208247 143.19592659 104.70840454 145.91261292 C104.06239096 152.80062783 103.78367735 159.68753977 103.52090454 166.60011292 C103.45540405 168.31158508 103.45540405 168.31158508 103.38858032 170.05763245 C103.28494324 172.80089366 103.18313559 175.54420732 103.08340454 178.28761292 C102.75340454 178.28761292 102.42340454 178.28761292 102.08340454 178.28761292 C101.85964238 165.79613759 101.65821511 153.30451844 101.48500443 140.81223392 C101.40387311 135.0110598 101.31515918 129.21021155 101.20889282 123.40943909 C101.10655183 117.80750861 101.02442109 112.20560752 100.95607758 106.60316277 C100.92654258 104.46972489 100.88982392 102.33637354 100.84568024 100.20318794 C100.78491729 97.20658748 100.75010668 94.21069192 100.72109985 91.21363831 C100.69736801 90.33897415 100.67363617 89.46431 100.64918518 88.56314087 C100.62303315 81.13108544 102.65685016 75.2388277 107.39590454 69.47511292 C115.29751553 63.04356908 122.23338768 62.17840723 132.39590454 62.07667542 C133.98185261 62.04862072 135.56778999 62.01995637 137.15371704 61.99073792 C139.62214 61.94948294 142.09036011 61.91253883 144.55899048 61.88624573 C146.96336506 61.85849926 149.36687017 61.81265598 151.77090454 61.76417542 C152.86495605 61.75929611 152.86495605 61.75929611 153.98110962 61.75431824 C161.70297346 61.57094738 167.59777025 58.89792071 173.08340454 53.28761292 C176.13078287 48.05207947 177.10506514 42.24075062 176.08340454 36.28761292 C173.94660182 29.65956744 171.08487777 25.48102532 164.95059204 22.12745667 C160.43238715 20.09520969 156.33438744 20.15922855 151.47793579 20.18995667 C150.63873093 20.19137161 149.79952606 20.19278656 148.93489075 20.19424438 C146.25519238 20.19984076 143.57557764 20.21239257 140.89590454 20.22511292 C139.07884846 20.23012838 137.26179106 20.23469121 135.44473267 20.23878479 C130.99092441 20.249809 126.53717866 20.26707113 122.08340454 20.28761292 C122.41340454 19.62761292 122.74340454 18.96761292 123.08340454 18.28761292 C120.23513856 15.92068325 120.23513856 15.92068325 116.89590454 16.66261292 C115.96777954 16.86886292 115.03965454 17.07511292 114.08340454 17.28761292 C114.44816787 14.74068673 114.71472027 13.58915019 116.74160767 11.93141174 C117.44221313 11.53977844 118.1428186 11.14814514 118.86465454 10.74464417 C119.62391235 10.31087463 120.38317017 9.8771051 121.16543579 9.43019104 C121.96336548 8.99126526 122.76129517 8.55233948 123.58340454 8.10011292 C125.15684472 7.21171656 126.72978827 6.32243984 128.30215454 5.43214417 C129.00276001 5.04389465 129.70336548 4.65564514 130.42520142 4.25563049 C132.06067679 3.39506554 132.06067679 3.39506554 133.08340454 2.28761292 C85.56340454 2.28761292 38.04340454 2.28761292 -10.91659546 2.28761292 C-6.65868874 0.15865956 -4.67321483 0.02717343 0 0 Z M124.08340454 15.28761292 C125.08340454 17.28761292 125.08340454 17.28761292 125.08340454 17.28761292 Z " fill="#F7A337" transform="translate(40.916595458984375,-0.2876129150390625)"/>
<path d="M0 0 C2.19591803 0.01840155 4.39141467 0.02050783 6.58740234 0.02026367 C24.92805282 0.08357221 24.92805282 0.08357221 29.37255859 3.39331055 C31.71348858 6.5854878 32.43505859 8.25555638 32.43505859 12.20581055 C30.90631989 16.18053118 30.00725362 17.82434719 26.43505859 20.20581055 C15.62267819 21.93234255 4.21694225 21.48415394 -6.72192383 21.60717773 C-9.00986217 21.63494804 -11.29689198 21.6807399 -13.58447266 21.72924805 C-14.26798294 21.73250092 -14.95149323 21.73575378 -15.65571594 21.73910522 C-23.74311309 21.9426715 -29.78897133 24.56111252 -35.56494141 30.20581055 C-37.04328052 32.15244342 -38.29695658 34.10875873 -39.56494141 36.20581055 C-41.08127246 33.28771568 -42.324864 30.33757856 -43.50244141 27.26831055 C-44.64288323 24.33759024 -45.71271568 21.97922333 -47.43994141 19.33081055 C-47.81119141 18.62956055 -48.18244141 17.92831055 -48.56494141 17.20581055 C-45.97497481 9.82070579 -36.37960665 6.44961018 -29.82666016 3.28393555 C-20.0957587 0.06749387 -10.14383264 -0.08785997 0 0 Z " fill="#EC8B46" transform="translate(173.56494140625,29.794189453125)"/>
<path d="M0 0 C1.05656636 -0.00467997 1.05656636 -0.00467997 2.1344775 -0.00945449 C4.49443042 -0.01743111 6.85412598 -0.01111229 9.21408081 -0.00482178 C10.90598705 -0.00753174 12.5978921 -0.0110927 14.28979492 -0.01544189 C18.88461651 -0.02456613 23.47934837 -0.02102186 28.07417154 -0.01468372 C32.87788036 -0.00962558 37.68158142 -0.01431451 42.48529053 -0.01745605 C50.55050031 -0.02109554 58.61567346 -0.01629633 66.68087769 -0.0067749 C76.01493896 0.00411698 85.34891291 0.00057867 94.68297207 -0.01042771 C102.68981937 -0.0194923 110.69664033 -0.02079016 118.70349109 -0.01555037 C123.48892771 -0.01242705 128.27432323 -0.01203138 133.05975723 -0.01862335 C137.55606824 -0.02438442 142.05226617 -0.02042277 146.54856491 -0.00883484 C148.2022101 -0.00618191 149.85586475 -0.00696407 151.50950623 -0.01136017 C153.75956006 -0.01679208 156.00924714 -0.01001066 158.25927734 0 C159.52062563 0.00075405 160.78197392 0.0015081 162.08154488 0.002285 C165.00265503 0.25396729 165.00265503 0.25396729 167.00265503 2.25396729 C166.11964722 2.18435791 165.2366394 2.11474854 164.32687378 2.04302979 C155.02449178 1.62337345 149.6591033 3.12549381 142.00265503 8.25396729 C140.74026646 9.05779447 139.47581786 9.85839258 138.20968628 10.65631104 C134.78095703 12.8185011 131.39773067 15.03540301 128.00265503 17.25396729 C143.84265503 17.74896729 143.84265503 17.74896729 160.00265503 18.25396729 C160.00265503 18.58396729 160.00265503 18.91396729 160.00265503 19.25396729 C147.46265503 19.58396729 134.92265503 19.91396729 122.00265503 20.25396729 C122.33265503 19.59396729 122.66265503 18.93396729 123.00265503 18.25396729 C120.15438905 15.88703762 120.15438905 15.88703762 116.81515503 16.62896729 C115.88703003 16.83521729 114.95890503 17.04146729 114.00265503 17.25396729 C114.36741836 14.7070411 114.63397075 13.55550456 116.66085815 11.89776611 C117.36146362 11.50613281 118.06206909 11.11449951 118.78390503 10.71099854 C119.54316284 10.277229 120.30242065 9.84345947 121.08468628 9.39654541 C121.88261597 8.95761963 122.68054565 8.51869385 123.50265503 8.06646729 C125.07609521 7.17807093 126.64903875 6.28879421 128.22140503 5.39849854 C128.9220105 5.01024902 129.62261597 4.62199951 130.3444519 4.22198486 C131.97992728 3.36141991 131.97992728 3.36141991 133.00265503 2.25396729 C85.48265503 2.25396729 37.96265503 2.25396729 -10.99734497 2.25396729 C-6.70811874 0.10935417 -4.71141487 0.00281487 0 0 Z M124.00265503 15.25396729 C125.00265503 17.25396729 125.00265503 17.25396729 125.00265503 17.25396729 Z " fill="#EEF1F4" transform="translate(40.997344970703125,-0.25396728515625)"/>
<path d="M0 0 C0 0.66 0 1.32 0 2 C-1.65 2.33 -3.3 2.66 -5 3 C-4.34 4.65 -3.68 6.3 -3 8 C-4.45556641 10.46508789 -4.45556641 10.46508789 -7 13 C-10.09389305 13.47077646 -12.62478222 13.63268302 -15.7109375 13.55859375 C-16.55669342 13.55626236 -17.40244934 13.55393097 -18.27383423 13.55152893 C-20.06091407 13.54179762 -21.84796333 13.52002441 -23.63476562 13.48706055 C-26.35854206 13.43779766 -29.08050643 13.42558699 -31.8046875 13.41992188 C-33.54428989 13.40582869 -35.28387669 13.3896217 -37.0234375 13.37109375 C-37.83299896 13.36573105 -38.64256042 13.36036835 -39.47665405 13.35484314 C-43.98806168 13.26086165 -47.80696818 12.86580474 -52 11 C-52.875 8.875 -52.875 8.875 -53 7 C-49.97143929 5.48571965 -46.7673399 5.75219163 -43.4375 5.625 C-32.73655159 5.11035499 -22.35114777 3.31320444 -11.9375 0.8125 C-7.89541276 -0.1427589 -4.14406782 -0.15069338 0 0 Z " fill="#2B2855" transform="translate(77,66)"/>
<path d="M0 0 C2.62187494 1.04874998 3.79371361 1.64931313 5.25 4.125 C5.4975 4.74375 5.745 5.3625 6 6 C8.64 6 11.28 6 14 6 C14 6.66 14 7.32 14 8 C14.55429687 7.84402344 15.10859375 7.68804687 15.6796875 7.52734375 C16.76636719 7.23537109 16.76636719 7.23537109 17.875 6.9375 C18.95394531 6.64166016 18.95394531 6.64166016 20.0546875 6.33984375 C22 6 22 6 24 7 C24.33 6.34 24.66 5.68 25 5 C27.0625 4.375 27.0625 4.375 29 4 C29 3.34 29 2.68 29 2 C28.01 1.67 27.02 1.34 26 1 C26 0.67 26 0.34 26 0 C30.99877567 -0.02483911 35.99751489 -0.04292563 40.99633789 -0.05493164 C42.69458645 -0.05994027 44.39283074 -0.06674906 46.09106445 -0.07543945 C48.54118915 -0.08765773 50.9912565 -0.09326314 53.44140625 -0.09765625 C54.19273331 -0.10281754 54.94406036 -0.10797882 55.71815491 -0.11329651 C60.24941493 -0.11377171 64.52883681 0.25523564 69 1 C69.37183099 8.56056338 69.37183099 8.56056338 67.625 10.625 C67.08875 11.07875 66.5525 11.5325 66 12 C65.34 13.98 64.68 15.96 64 18 C44.2 17.505 44.2 17.505 24 17 C24 16.67 24 16.34 24 16 C35.55 16 47.1 16 59 16 C59.66 14.68 60.32 13.36 61 12 C61.33 11.34 61.66 10.68 62 10 C61.60061233 7.90178785 61.60061233 7.90178785 61 6 C62.65 5.67 64.3 5.34 66 5 C66 4.34 66 3.68 66 3 C61.6395355 3.69053687 57.27961476 4.38438507 52.92016602 5.08129883 C51.43723805 5.31788624 49.95416565 5.55357021 48.47094727 5.78833008 C46.33831735 6.12603813 44.20622896 6.46699801 42.07421875 6.80859375 C40.79119873 7.01282959 39.50817871 7.21706543 38.1862793 7.42749023 C34.99312375 7.92258594 34.99312375 7.92258594 32 9 C30.52034074 9.14573058 29.03596157 9.24663268 27.55078125 9.31640625 C26.27944336 9.37924805 26.27944336 9.37924805 24.98242188 9.44335938 C24.10134766 9.48267578 23.22027344 9.52199219 22.3125 9.5625 C21.41982422 9.60568359 20.52714844 9.64886719 19.60742188 9.69335938 C17.40509892 9.79935353 15.20266527 9.90142051 13 10 C13.33 10.99 13.66 11.98 14 13 C10.02191941 11.63628854 7.32168326 9.85363833 4.1875 7.0625 C3.39730469 6.37285156 2.60710938 5.68320313 1.79296875 4.97265625 C0 3 0 3 0 0 Z M31 2 C31 2.99 31 3.98 31 5 C33.31 5 35.62 5 38 5 C38 4.34 38 3.68 38 3 C35.69 2.67 33.38 2.34 31 2 Z " fill="#3C5D8D" transform="translate(11,63)"/>
<path d="M0 0 C2.95949133 0.12408184 5.91355888 0.09512605 8.875 0.0625 C10.050625 0.05573242 10.050625 0.05573242 11.25 0.04882812 C13.16670014 0.03714093 15.08336048 0.01920908 17 0 C17 0.66 17 1.32 17 2 C18.98 2.66 20.96 3.32 23 4 C23 4.66 23 5.32 23 6 C22.01 6 21.02 6 20 6 C20 5.34 20 4.68 20 4 C18.88625 4.20625 17.7725 4.4125 16.625 4.625 C12.28067034 5.18531107 8.6869107 4.43966533 4.44921875 3.4921875 C-1.97211446 2.20177604 -7.19577757 2.71459108 -13 6 C-18.2611024 11.09796745 -19.28721028 15.54976343 -20.0625 22.625 C-20.15337891 23.42679688 -20.24425781 24.22859375 -20.33789062 25.0546875 C-20.56197653 27.03607868 -20.7814275 29.01799305 -21 31 C-20.34 31.33 -19.68 31.66 -19 32 C-19.66 32 -20.32 32 -21 32 C-20.649375 33.11375 -20.29875 34.2275 -19.9375 35.375 C-19 39 -19 39 -20 41 C-20.09633709 42.6110107 -20.13075115 44.2259565 -20.1328125 45.83984375 C-20.13410156 46.82146484 -20.13539063 47.80308594 -20.13671875 48.81445312 C-20.13285156 49.84505859 -20.12898437 50.87566406 -20.125 51.9375 C-20.12886719 52.93330078 -20.13273438 53.92910156 -20.13671875 54.95507812 C-20.12900297 60.90008637 -19.78752612 66.71657847 -19.19580078 72.63012695 C-18.97061379 75.35567571 -19.07132207 77.90831367 -19.375 80.625 C-20.02101358 87.51301491 -20.2997272 94.39992685 -20.5625 101.3125 C-20.60616699 102.45348145 -20.64983398 103.59446289 -20.69482422 104.77001953 C-20.79846131 107.51328074 -20.90026895 110.25659441 -21 113 C-21.33 113 -21.66 113 -22 113 C-22.22376216 100.50852467 -22.42518943 88.01690552 -22.59840012 75.52462101 C-22.67953143 69.72344688 -22.76824536 63.92259864 -22.87451172 58.12182617 C-22.97685271 52.5198957 -23.05898345 46.9179946 -23.12732697 41.31554985 C-23.15686196 39.18211198 -23.19358062 37.04876063 -23.2377243 34.91557503 C-23.29848725 31.91897457 -23.33329786 28.923079 -23.36230469 25.92602539 C-23.38603653 25.05136124 -23.40976837 24.17669708 -23.43421936 23.27552795 C-23.46046704 15.81629203 -21.35190133 10.00520726 -16.75 4.125 C-11.05651266 -0.27451294 -7.02147457 -1.22148729 0 0 Z " fill="#E8763B" transform="translate(165,65)"/>
<path d="M0 0 C4.58123157 4.13835865 4.4231931 9.96261857 4.90380859 15.83154297 C5.09640362 20.17324106 4.77429291 24.48505223 4.37011719 28.80737305 C4.07892776 31.9472066 3.98744994 33.96234983 5 37 C4.688714 39.00354988 4.35208982 41.00321662 4 43 C3.91110071 45.24862914 3.86981479 47.4996202 3.875 49.75 C3.87242188 50.87921875 3.86984375 52.0084375 3.8671875 53.171875 C3.80645388 55.95021112 3.80645388 55.95021112 5 58 C4.67 58.66 4.34 59.32 4 60 C3.92966231 61.87379605 3.9156978 63.75001102 3.9375 65.625 C3.94652344 66.62789063 3.95554687 67.63078125 3.96484375 68.6640625 C3.97644531 69.43492187 3.98804687 70.20578125 4 71 C4.66 71.33 5.32 71.66 6 72 C5.01 72.99 5.01 72.99 4 74 C3.70685784 75.96800097 3.70685784 75.96800097 3.76953125 78.2109375 C3.77146484 79.04367188 3.77339844 79.87640625 3.77539062 80.734375 C3.78763672 81.60578125 3.79988281 82.4771875 3.8125 83.375 C3.81314453 84.23867187 3.81378906 85.10234375 3.81445312 85.9921875 C3.80379564 90.61911502 3.80379564 90.61911502 4.5456543 95.16259766 C5 97 5 97 4.4375 98.875 C3.80940289 101.92575739 5.01135188 104.09584614 6 107 C5.67 107.99 5.34 108.98 5 110 C-0.07023243 104.92976757 0.69744686 95.62913317 0.68115234 88.89038086 C0.67110672 87.92346313 0.6610611 86.95654541 0.65071106 85.96032715 C0.62005949 82.79517153 0.60289432 79.63009978 0.5859375 76.46484375 C0.56721134 74.25809517 0.54763686 72.05135364 0.5272522 69.84461975 C0.47607804 64.05958222 0.43637373 58.27452151 0.39910889 52.48937988 C0.35897673 46.57684668 0.30792652 40.66440866 0.2578125 34.75195312 C0.16122755 23.16803576 0.07676726 11.58406447 0 0 Z " fill="#455683" transform="translate(78,85)"/>
<path d="M0 0 C0.66 0 1.32 0 2 0 C1.89248643 13.08246312 1.77985042 26.16487113 1.66066074 39.24723339 C1.60547849 45.32178635 1.55206593 51.39634416 1.50268555 57.47094727 C1.45497281 63.33241769 1.40262739 69.19383006 1.34705925 75.05523109 C1.32666703 77.29232654 1.30794881 79.52943789 1.29092598 81.76656151 C1.2668127 84.89806238 1.23676745 88.02945404 1.20532227 91.16088867 C1.1995668 92.08733688 1.19381134 93.0137851 1.18788147 93.9683075 C1.14066088 98.10098352 1.04134645 101.9705923 0 106 C-0.33 106 -0.66 106 -1 106 C-2.14759619 81.98593921 -2.14759619 81.98593921 -1.9375 73.109375 C-1.90438672 70.80685276 -1.90438672 70.80685276 -3 68 C-2.505 67.01 -2.505 67.01 -2 66 C-1.91491821 64.4292118 -1.89282435 62.85480022 -1.90234375 61.28173828 C-1.90564697 60.29956329 -1.9089502 59.31738831 -1.91235352 58.30545044 C-1.92065186 57.23785492 -1.9289502 56.1702594 -1.9375 55.0703125 C-1.94128662 53.96960419 -1.94507324 52.86889587 -1.94897461 51.73483276 C-1.96531272 47.01816254 -1.99318396 42.3015784 -2.02050781 37.58496094 C-2.03876212 34.14258232 -2.05075959 30.70021858 -2.0625 27.2578125 C-2.07494751 25.68678268 -2.07494751 25.68678268 -2.08764648 24.08401489 C-2.14515588 6.43546765 -2.14515588 6.43546765 0 0 Z " fill="#B98E77" transform="translate(160,83)"/>
<path d="M0 0 C4.45885926 0.10944715 8.91684156 0.24017666 13.375 0.375 C14.64601562 0.4059375 15.91703125 0.436875 17.2265625 0.46875 C18.43828125 0.50742188 19.65 0.54609375 20.8984375 0.5859375 C22.57945557 0.63306885 22.57945557 0.63306885 24.29443359 0.68115234 C27 1 27 1 29 3 C27.06374902 3.98163422 25.12595461 4.96022454 23.1875 5.9375 C22.10855469 6.48277344 21.02960938 7.02804688 19.91796875 7.58984375 C15.23029281 9.85524002 11.33925491 10.17342586 6.2265625 10.24609375 C4.66405692 10.27903335 3.10155706 10.31224498 1.5390625 10.34570312 C-0.91857975 10.39307877 -3.37619901 10.43751917 -5.83398438 10.47680664 C-8.20987851 10.51664342 -10.58530409 10.56815795 -12.9609375 10.62109375 C-13.69130219 10.6295079 -14.42166687 10.63792206 -15.17416382 10.64659119 C-20.13537664 10.76613456 -23.62612457 11.81306228 -28 14 C-28.33 12.35 -28.66 10.7 -29 9 C-27.68 8.34 -26.36 7.68 -25 7 C-25 7.66 -25 8.32 -25 9 C-24.34 8.67 -23.68 8.34 -23 8 C-20.37619687 7.84339117 -17.77475148 7.7417092 -15.1484375 7.68359375 C-14.37440582 7.66281265 -13.60037415 7.64203156 -12.80288696 7.62062073 C-10.32701608 7.55516552 -7.85103798 7.49625913 -5.375 7.4375 C-3.69790552 7.39431093 -2.02082193 7.35069652 -0.34375 7.30664062 C3.77072308 7.19948829 7.88530414 7.09820955 12 7 C12.33 6.34 12.66 5.68 13 5 C13 5.66 13 6.32 13 7 C13.99 6.67 14.98 6.34 16 6 C15.505 4.515 15.505 4.515 15 3 C10.38 3 5.76 3 1 3 C0.67 2.01 0.34 1.02 0 0 Z " fill="#E58C7B" transform="translate(191,70)"/>
<path d="M0 0 C1.31053848 0.00424484 1.31053848 0.00424484 2.64755249 0.00857544 C5.39799564 0.01963947 8.14809524 0.04471669 10.8984375 0.0703125 C12.77994317 0.08036016 14.66145401 0.08948286 16.54296875 0.09765625 C21.11992107 0.11953338 25.69662135 0.15396531 30.2734375 0.1953125 C26.96145898 3.50729102 23.34250453 4.12160673 18.75 4.43823242 C16.84347656 4.43206909 16.84347656 4.43206909 14.8984375 4.42578125 C14.21088379 4.42532303 13.52333008 4.42486481 12.81494141 4.4243927 C11.36944846 4.42138809 9.92395823 4.41355592 8.47851562 4.40112305 C6.2798297 4.38286558 4.08156639 4.38061376 1.8828125 4.38085938 C-4.10234123 4.36001154 -9.81456531 4.20028832 -15.7265625 3.1953125 C-18.49521203 3.56390238 -18.49521203 3.56390238 -20.7265625 4.1953125 C-20.3965625 3.5353125 -20.0665625 2.8753125 -19.7265625 2.1953125 C-13.317001 0.13066364 -6.67275615 -0.08365941 0 0 Z " fill="#EEAA61" transform="translate(174.7265625,61.8046875)"/>
<path d="M0 0 C1.32 0 2.64 0 4 0 C4.37183099 7.56056338 4.37183099 7.56056338 2.625 9.625 C2.08875 10.07875 1.5525 10.5325 1 11 C0.34 12.98 -0.32 14.96 -1 17 C-20.8 16.505 -20.8 16.505 -41 16 C-41 15.67 -41 15.34 -41 15 C-29.45 15 -17.9 15 -6 15 C-5.34 13.68 -4.68 12.36 -4 11 C-3.67 10.34 -3.34 9.68 -3 9 C-3.39938767 6.90178785 -3.39938767 6.90178785 -4 5 C-2.35 4.67 -0.7 4.34 1 4 C0.505 2.02 0.505 2.02 0 0 Z " fill="#586084" transform="translate(76,64)"/>
<path d="M0 0 C1.34403648 -0.00412399 1.34403648 -0.00412399 2.71522522 -0.0083313 C3.69561768 -0.00114075 4.67601013 0.0060498 5.68611145 0.01345825 C7.23758629 0.01302017 7.23758629 0.01302017 8.82040405 0.01257324 C12.24553258 0.01396865 15.67044466 0.02953995 19.09553528 0.04519653 C21.46779257 0.04892591 23.84005141 0.05177324 26.21231079 0.05377197 C32.46112814 0.06141436 38.70985276 0.08106811 44.95863342 0.10317993 C51.33303066 0.12362529 57.70744285 0.13277089 64.0818634 0.14285278 C76.59297071 0.16431337 89.10401369 0.19807312 101.61506653 0.24050903 C101.61506653 0.57050903 101.61506653 0.90050903 101.61506653 1.24050903 C100.40063873 1.2508165 99.18621094 1.26112396 97.9349823 1.27174377 C86.48764081 1.36951909 75.04035316 1.47225711 63.59309959 1.57984829 C57.70802529 1.63500195 51.82294595 1.68840983 45.93782043 1.73782349 C40.25789252 1.78557853 34.57802375 1.83792528 28.89816666 1.89344978 C26.7316752 1.91382289 24.56516755 1.93254418 22.39864731 1.94958305 C19.36314297 1.97373888 16.32774939 2.00377799 13.29231262 2.03518677 C12.3975119 2.04094223 11.50271118 2.04669769 10.58079529 2.05262756 C6.13805568 2.10484579 2.00039378 2.45736847 -2.38493347 3.24050903 C-5.25993347 2.80300903 -5.25993347 2.80300903 -7.38493347 2.24050903 C-4.24951591 0.15023066 -3.56295036 -0.00843302 0 0 Z " fill="#23729C" transform="translate(39.38493347167969,0.759490966796875)"/>
<path d="M0 0 C0 1.32 0 2.64 0 4 C-0.99 3.67 -1.98 3.34 -3 3 C-3.66 3.33 -4.32 3.66 -5 4 C-6.6648064 4.09039906 -8.33323421 4.11755257 -10.00048828 4.11352539 C-11.56188034 4.11341209 -11.56188034 4.11341209 -13.15481567 4.11329651 C-14.28192963 4.10813522 -15.40904358 4.10297394 -16.5703125 4.09765625 C-17.72167694 4.0962413 -18.87304138 4.09482635 -20.05929565 4.09336853 C-23.74788986 4.08775716 -27.43642405 4.0752027 -31.125 4.0625 C-33.62109288 4.05748647 -36.1171867 4.05292331 -38.61328125 4.04882812 C-44.74220809 4.03778403 -50.87109976 4.0210348 -57 4 C-57 3.67 -57 3.34 -57 3 C-50.68159758 2.42089929 -44.41062115 1.93282411 -38.0625 2 C-31.80152175 2.05397395 -25.5663156 1.83249961 -19.3125 1.5625 C-17.84018921 1.50352539 -17.84018921 1.50352539 -16.33813477 1.44335938 C-15.41830811 1.40146484 -14.49848145 1.35957031 -13.55078125 1.31640625 C-12.72231689 1.27974854 -11.89385254 1.24309082 -11.0402832 1.20532227 C-7.20714248 0.81957722 -4.0849244 -0.07564675 0 0 Z " fill="#9DC0CA" transform="translate(155,15)"/>
<path d="M0 0 C0.99 0.495 0.99 0.495 2 1 C1.98839844 1.73863281 1.97679687 2.47726563 1.96484375 3.23828125 C1.9193375 8.35448441 1.97739214 13.35156245 2.5625 18.4375 C3.05408821 23.34645835 2.78404633 27.9291943 2.32421875 32.83203125 C1.82273263 38.64655945 1.65913697 44.48205747 1.4375 50.3125 C1.39383301 51.45348145 1.35016602 52.59446289 1.30517578 53.77001953 C1.20153869 56.51328074 1.09973105 59.25659441 1 62 C0.67 62 0.34 62 0 62 C0 41.54 0 21.08 0 0 Z " fill="#BF4849" transform="translate(143,116)"/>
<path d="M0 0 C1.12775345 0.00212242 1.12775345 0.00212242 2.27828979 0.00428772 C4.6829626 0.0098916 7.08754277 0.02244468 9.4921875 0.03515625 C11.12109241 0.04017075 12.74999877 0.04473375 14.37890625 0.04882812 C18.37503577 0.05986228 22.37109592 0.07712946 26.3671875 0.09765625 C21.7421875 4.97265625 21.7421875 4.97265625 18.3671875 6.09765625 C18.6971875 4.77765625 19.0271875 3.45765625 19.3671875 2.09765625 C18.41328125 2.25878906 17.459375 2.41992188 16.4765625 2.5859375 C11.85773019 3.24294663 7.27575561 3.28155612 2.6171875 3.28515625 C1.76769531 3.29740234 0.91820312 3.30964844 0.04296875 3.32226562 C-1.18099609 3.32516602 -1.18099609 3.32516602 -2.4296875 3.328125 C-3.53328613 3.33428833 -3.53328613 3.33428833 -4.65917969 3.34057617 C-6.6328125 3.09765625 -6.6328125 3.09765625 -9.6328125 1.09765625 C-6.56686656 -0.43531672 -3.36169397 -0.0236583 0 0 Z " fill="#3B8CA7" transform="translate(148.6328125,0.90234375)"/>
<path d="M0 0 C1.01394333 0.00707474 2.02788666 0.01414948 3.07255554 0.0214386 C6.30303505 0.04937113 9.53176536 0.11210963 12.76171875 0.17578125 C14.95505305 0.2008655 17.14841459 0.22367844 19.34179688 0.24414062 C24.71153177 0.2991937 30.08025029 0.38280852 35.44921875 0.48828125 C35.44921875 0.81828125 35.44921875 1.14828125 35.44921875 1.48828125 C33.85267456 1.52586548 33.85267456 1.52586548 32.22387695 1.56420898 C28.26347446 1.65859795 24.30323452 1.758741 20.34301758 1.8605957 C18.63114228 1.9038257 16.91922718 1.9455089 15.20727539 1.9855957 C12.74222841 2.04358839 10.27737957 2.10719822 7.8125 2.171875 C7.05085037 2.18858749 6.28920074 2.20529999 5.50447083 2.22251892 C1.70824523 2.32762688 -1.85298135 2.61853308 -5.55078125 3.48828125 C-6.41703125 3.61203125 -7.28328125 3.73578125 -8.17578125 3.86328125 C-10.90665814 4.58193306 -11.83335586 5.2801629 -13.55078125 7.48828125 C-14.72652836 9.58817777 -14.72652836 9.58817777 -15.55078125 11.48828125 C-15.99053107 7.7064328 -15.89370082 5.98170916 -13.69067383 2.81176758 C-9.17164124 -0.53226734 -5.47901237 -0.1442223 0 0 Z " fill="#4A5677" transform="translate(49.55078125,31.51171875)"/>
<path d="M0 0 C0 0.99 0 1.98 0 3 C-0.969375 3.185625 -1.93875 3.37125 -2.9375 3.5625 C-8.14474142 5.00302785 -11.95040616 8.56565058 -16 12 C-15.01 12.66 -14.02 13.32 -13 14 C-15.64458379 15.32229189 -17.67761301 15.09677194 -20.625 15.0625 C-21.62789062 15.05347656 -22.63078125 15.04445313 -23.6640625 15.03515625 C-24.43492187 15.02355469 -25.20578125 15.01195312 -26 15 C-21.58457758 11.24599713 -16.80528308 8.26514905 -11.875 5.25 C-10.65876953 4.49009766 -10.65876953 4.49009766 -9.41796875 3.71484375 C-8.63808594 3.23660156 -7.85820312 2.75835937 -7.0546875 2.265625 C-6.34812012 1.83024414 -5.64155273 1.39486328 -4.91357422 0.94628906 C-3 0 -3 0 0 0 Z " fill="#EC8F1D" transform="translate(193,3)"/>
<path d="M0 0 C2.62187494 1.04874998 3.79371361 1.64931313 5.25 4.125 C5.4975 4.74375 5.745 5.3625 6 6 C8.64 6 11.28 6 14 6 C14 6.66 14 7.32 14 8 C19.94 8 25.88 8 32 8 C32 8.33 32 8.66 32 9 C25.73 9.33 19.46 9.66 13 10 C13.33 10.99 13.66 11.98 14 13 C10.02191941 11.63628854 7.32168326 9.85363833 4.1875 7.0625 C3.39730469 6.37285156 2.60710938 5.68320313 1.79296875 4.97265625 C0 3 0 3 0 0 Z " fill="#3F476F" transform="translate(11,63)"/>
<path d="M0 0 C0.625 1.875 0.625 1.875 1 4 C0.34 4.66 -0.32 5.32 -1 6 C-1 6.66 -1 7.32 -1 8 C-2.79296875 9.4375 -2.79296875 9.4375 -5.1875 11 C-5.96480469 11.515625 -6.74210937 12.03125 -7.54296875 12.5625 C-11.07828979 14.63085953 -13.87177313 16 -18 16 C-18 15.34 -18 14.68 -18 14 C-20.64 13.67 -23.28 13.34 -26 13 C-26 12.67 -26 12.34 -26 12 C-25.21496094 11.96261719 -24.42992188 11.92523438 -23.62109375 11.88671875 C-15.78889652 11.39660579 -10.21916899 10.86148355 -4.1875 5.5 C-1.91139964 3.00842519 -1.91139964 3.00842519 0 0 Z " fill="#908EA2" transform="translate(139,189)"/>
<path d="M0 0 C0.495 0.99 0.495 0.99 1 2 C1.99 2.33 2.98 2.66 4 3 C0.17254277 4.24006181 -3.63345592 4.12692202 -7.609375 4.09765625 C-8.33618469 4.0962413 -9.06299438 4.09482635 -9.81182861 4.09336853 C-12.12459494 4.08778792 -14.43726312 4.07523904 -16.75 4.0625 C-18.32161318 4.05748249 -19.89322789 4.05292002 -21.46484375 4.04882812 C-25.30993343 4.03782485 -29.1549501 4.02057361 -33 4 C-33 4.66 -33 5.32 -33 6 C-34.175625 6.4640625 -34.175625 6.4640625 -35.375 6.9375 C-37.92330128 7.92875038 -37.92330128 7.92875038 -40 9 C-40.33 7.35 -40.66 5.7 -41 4 C-39.68 3.34 -38.36 2.68 -37 2 C-37 2.66 -37 3.32 -37 4 C-36.34 3.67 -35.68 3.34 -35 3 C-32.37619687 2.84339117 -29.77475148 2.7417092 -27.1484375 2.68359375 C-26.37440582 2.66281265 -25.60037415 2.64203156 -24.80288696 2.62062073 C-22.32701608 2.55516552 -19.85103798 2.49625913 -17.375 2.4375 C-15.69790552 2.39431093 -14.02082193 2.35069652 -12.34375 2.30664062 C-8.22927692 2.19948829 -4.11469586 2.09820955 0 2 C0 1.34 0 0.68 0 0 Z " fill="#D74D3F" transform="translate(203,75)"/>
<path d="M0 0 C0.66 0 1.32 0 2 0 C1.76228882 1.26384521 1.76228882 1.26384521 1.51977539 2.55322266 C0.98284099 6.11378621 0.79123921 9.55000344 0.68359375 13.1484375 C0.66281265 13.80582916 0.64203156 14.46322083 0.62062073 15.14053345 C0.55579247 17.21859362 0.49655436 19.29676856 0.4375 21.375 C0.39425112 22.79298011 0.35063491 24.21094907 0.30664062 25.62890625 C0.20018082 29.0858188 0.09873016 32.54285706 0 36 C-0.66 35.67 -1.32 35.34 -2 35 C-2.25120308 6.75360924 -2.25120308 6.75360924 0 0 Z " fill="#F27550" transform="translate(160,83)"/>
<path d="M0 0 C0.33 0 0.66 0 1 0 C1.10477512 5.78591511 0.99250545 11.29309366 0 17 C0.66 17.33 1.32 17.66 2 18 C1.34 18 0.68 18 0 18 C0.350625 19.11375 0.70125 20.2275 1.0625 21.375 C2 25 2 25 1 27 C0.93049459 28.54023996 0.91547643 30.08334988 0.9375 31.625 C0.94652344 32.44226563 0.95554688 33.25953125 0.96484375 34.1015625 C0.97644531 34.72804687 0.98804688 35.35453125 1 36 C0.01 36.495 0.01 36.495 -1 37 C-1.495 19.675 -1.495 19.675 -2 2 C-1.34 2 -0.68 2 0 2 C0 1.34 0 0.68 0 0 Z " fill="#DB5B30" transform="translate(144,79)"/>
<path d="M0 0 C0.33 0.66 0.66 1.32 1 2 C1.66 2 2.32 2 3 2 C3 2.66 3 3.32 3 4 C3.66 4 4.32 4 5 4 C5.433125 4.969375 5.86625 5.93875 6.3125 6.9375 C7.7014861 10.27731765 7.7014861 10.27731765 11 11 C11 11.99 11 12.98 11 14 C11.99 14.33 12.98 14.66 14 15 C14 15.99 14 16.98 14 18 C11 18 11 18 9.31640625 16.49609375 C0 5.56124722 0 5.56124722 0 0 Z " fill="#7880A1" transform="translate(81,193)"/>
<path d="M0 0 C0.33 0 0.66 0 1 0 C1.07476563 0.9178125 1.14953125 1.835625 1.2265625 2.78125 C2.3155783 12.9453975 4.89986336 17.98464111 12 25 C9.8125 25.375 9.8125 25.375 7 25 C2.0721397 19.9575383 -0.24447645 16.39201147 -0.17578125 9.31640625 C-0.15902344 8.63449219 -0.14226563 7.95257813 -0.125 7.25 C-0.11597656 6.55261719 -0.10695313 5.85523438 -0.09765625 5.13671875 C-0.07419888 3.42433042 -0.03833104 1.71211996 0 0 Z " fill="#8AA4BC" transform="translate(20,35)"/>
<path d="M0 0 C2.29160319 -0.02692484 4.58329546 -0.04636124 6.875 -0.0625 C8.15117188 -0.07410156 9.42734375 -0.08570313 10.7421875 -0.09765625 C14 0 14 0 16 1 C17.51845202 1.09472912 19.04110384 1.1298841 20.5625 1.125 C21.36816406 1.12757813 22.17382812 1.13015625 23.00390625 1.1328125 C24.99942021 1.22011391 24.99942021 1.22011391 26 0 C27.99958364 -0.04080783 30.00045254 -0.04254356 32 0 C27.91192852 4.08807148 22.65849369 3.18361459 17.25 3.1875 C15.92742187 3.20586914 15.92742187 3.20586914 14.578125 3.22460938 C9.31661385 3.23635382 4.97810868 2.72057582 0 1 C0 0.67 0 0.34 0 0 Z " fill="#8C879B" transform="translate(103,217)"/>
<path d="M0 0 C0.66 0 1.32 0 2 0 C2 12.87 2 25.74 2 39 C1.67 39 1.34 39 1 39 C-0.14759619 14.98593921 -0.14759619 14.98593921 0.0625 6.109375 C0.09561328 3.80685276 0.09561328 3.80685276 -1 1 C-0.67 0.67 -0.34 0.34 0 0 Z " fill="#DE747B" transform="translate(158,150)"/>
<path d="M0 0 C2 1 2 1 3 3 C2.43410156 3.47050781 1.86820313 3.94101563 1.28515625 4.42578125 C0.55167969 5.04839844 -0.18179688 5.67101562 -0.9375 6.3125 C-2.03384766 7.23482422 -2.03384766 7.23482422 -3.15234375 8.17578125 C-5.23820366 9.95975519 -5.23820366 9.95975519 -6 13 C-6.66 13 -7.32 13 -8 13 C-8.33 13.66 -8.66 14.32 -9 15 C-8.599842 9.53117394 -6.57688682 6.01107539 -3 2 C-2.01 1.34 -1.02 0.68 0 0 Z " fill="#E8966B" transform="translate(152,66)"/>
<path d="M0 0 C0.45375 0.70125 0.9075 1.4025 1.375 2.125 C5.00402577 6.09964727 9.32653918 8.40462386 14 11 C10.62409801 12.12530066 8.53135195 12.50447885 5 12 C2.6875 9.0625 2.6875 9.0625 1 6 C0.67 5.67 0.34 5.34 0 5 C-0.04063832 3.33382885 -0.042721 1.66611905 0 0 Z " fill="#8C91AC" transform="translate(99,189)"/>
<path d="M0 0 C2.7735893 -0.1953745 5.30788515 -0.20701158 8.0703125 -0.07421875 C8.86654022 -0.04777786 9.66276794 -0.02133698 10.48312378 0.00590515 C13.03116632 0.09381554 15.57780663 0.20290977 18.125 0.3125 C19.85020985 0.37574368 21.57547078 0.43761024 23.30078125 0.49804688 C27.53461272 0.64937943 31.76730642 0.81971744 36 1 C36 1.33 36 1.66 36 2 C17.19 2.495 17.19 2.495 -2 3 C-1.34 2.01 -0.68 1.02 0 0 Z " fill="#F5ECE8" transform="translate(165,17)"/>
<path d="M0 0 C0.625 1.875 0.625 1.875 1 4 C0.34 4.66 -0.32 5.32 -1 6 C-1 6.66 -1 7.32 -1 8 C-8.28571429 12.57142857 -8.28571429 12.57142857 -13 12 C-11 10 -11 10 -7.625 8.25 C-3.78638132 6.13435213 -2.14599281 3.77694734 0 0 Z " fill="#A392AA" transform="translate(139,189)"/>
<path d="M0 0 C-5.75 3 -5.75 3 -8 3 C-8.66 4.32 -9.32 5.64 -10 7 C-10.99 7 -11.98 7 -13 7 C-13.33 6.01 -13.66 5.02 -14 4 C-12.23494565 3.13395466 -10.46271926 2.28251358 -8.6875 1.4375 C-7.70136719 0.96183594 -6.71523437 0.48617187 -5.69921875 -0.00390625 C-3 -1 -3 -1 0 0 Z " fill="#E49970" transform="translate(150,33)"/>
<path d="M0 0 C1.65 0 3.3 0 5 0 C5 0.66 5 1.32 5 2 C6.32 2.33 7.64 2.66 9 3 C5.86501708 4.85776765 3.62528568 5.20140476 0 5 C0 3.35 0 1.7 0 0 Z " fill="#D66865" transform="translate(208,72)"/>
<path d="M0 0 C0.80824219 0.19464844 1.61648437 0.38929687 2.44921875 0.58984375 C3.06410156 0.74582031 3.67898437 0.90179688 4.3125 1.0625 C2.3125 3.0625 2.3125 3.0625 -0.7265625 3.2578125 C-1.90992188 3.23460938 -3.09328125 3.21140625 -4.3125 3.1875 C-5.50101563 3.16945313 -6.68953125 3.15140625 -7.9140625 3.1328125 C-8.82929688 3.10960938 -9.74453125 3.08640625 -10.6875 3.0625 C-7.25848228 -0.69309083 -4.87530911 -1.20116311 0 0 Z " fill="#E4652C" transform="translate(163.6875,64.9375)"/>
<path d="M0 0 C3.63 0 7.26 0 11 0 C11.33 0.66 11.66 1.32 12 2 C8.78548731 3.60725635 5.56387464 3.05748185 2 3 C2 2.34 2 1.68 2 1 C1.34 0.67 0.68 0.34 0 0 Z " fill="#3E335B" transform="translate(29,76)"/>
<path d="M0 0 C2.57737166 1.03094867 3.76284247 1.5108626 5 4.0625 C5.8295822 6.21280279 5.8295822 6.21280279 8.125 6.75 C8.74375 6.8325 9.3625 6.915 10 7 C8.02 7.99 8.02 7.99 6 9 C4.99105628 8.07213211 3.99309093 7.13231567 3 6.1875 C2.1646875 5.40439453 2.1646875 5.40439453 1.3125 4.60546875 C0 3 0 3 0 0 Z " fill="#51658B" transform="translate(11,63)"/>
<path d="M0 0 C4.29 0.99 8.58 1.98 13 3 C9 6 9 6 6.75 5.6875 C6.1725 5.460625 5.595 5.23375 5 5 C5 4.34 5 3.68 5 3 C4.360625 2.87625 3.72125 2.7525 3.0625 2.625 C2.381875 2.41875 1.70125 2.2125 1 2 C0.67 1.34 0.34 0.68 0 0 Z " fill="#50517C" transform="translate(108,200)"/>
<path d="M0 0 C0.3125 2.3125 0.3125 2.3125 0 5 C-2.375 6.875 -2.375 6.875 -5 8 C-5.66 7.67 -6.32 7.34 -7 7 C-6.525625 6.566875 -6.05125 6.13375 -5.5625 5.6875 C-3.76313043 3.97690387 -3.76313043 3.97690387 -3 1 C-1 0 -1 0 0 0 Z " fill="#F5AE54" transform="translate(218,49)"/>
<path d="M0 0 C2.52259061 1.97420135 2.9929808 2.96745642 3.6875 6.1875 C3.790625 7.115625 3.89375 8.04375 4 9 C1 8 1 8 -0.0625 6.0625 C-0.371875 5.381875 -0.68125 4.70125 -1 4 C-1.66 3.34 -2.32 2.68 -3 2 C-2.01 2 -1.02 2 0 2 C0 1.34 0 0.68 0 0 Z " fill="#666E8E" transform="translate(75,79)"/>
<path d="M0 0 C0.33 0.66 0.66 1.32 1 2 C3.01669827 3.13350534 3.01669827 3.13350534 5 4 C3.824375 4.4640625 3.824375 4.4640625 2.625 4.9375 C0.07669872 5.92875038 0.07669872 5.92875038 -2 7 C-2.33 5.35 -2.66 3.7 -3 2 C-2.01 1.34 -1.02 0.68 0 0 Z " fill="#E78763" transform="translate(165,77)"/>
<path d="M0 0 C2 1 2 1 3 3 C1.02 4.32 -0.96 5.64 -3 7 C-3.33 5.68 -3.66 4.36 -4 3 C-2.68 2.01 -1.36 1.02 0 0 Z " fill="#E78861" transform="translate(152,66)"/>
<path d="M0 0 C0 0.99 0 1.98 0 3 C1.32 3.66 2.64 4.32 4 5 C0.37 5 -3.26 5 -7 5 C-2.25 1.125 -2.25 1.125 0 0 Z " fill="#E18428" transform="translate(174,13)"/>
<path d="M0 0 C0.66 0.33 1.32 0.66 2 1 C-0.20979308 3.81939117 -2.40062046 6.53058944 -5 9 C-5.66 8.34 -6.32 7.68 -7 7 C-4.69 4.69 -2.38 2.38 0 0 Z " fill="#7D9EBB" transform="translate(18,7)"/>
<path d="M0 0 C0.66 0 1.32 0 2 0 C4.125 5.625 4.125 5.625 3 9 C0.23776722 6.23776722 0.42143709 3.79293383 0 0 Z " fill="#3C4A76" transform="translate(80,186)"/>
<path d="M0 0 C1.74965358 -0.05429959 3.49979787 -0.09292823 5.25 -0.125 C6.22453125 -0.14820313 7.1990625 -0.17140625 8.203125 -0.1953125 C11.0196498 0.00137219 12.60949036 0.55431084 15 2 C13.34385343 2.38218767 11.67542976 2.71395102 10 3 C9.67 2.67 9.34 2.34 9 2 C7.48530552 1.76807135 5.96245438 1.58784762 4.4375 1.4375 C3.61121094 1.35371094 2.78492188 1.26992188 1.93359375 1.18359375 C1.29550781 1.12300781 0.65742188 1.06242187 0 1 C0 0.67 0 0.34 0 0 Z " fill="#D77D3B" transform="translate(176,48)"/>
<path d="M0 0 C-2.86299506 2.86299506 -4.65852284 2.99421225 -8.6875 3.0625 C-9.780625 3.041875 -10.87375 3.02125 -12 3 C-12 2.67 -12 2.34 -12 2 C-7.82262526 0.40861915 -4.46839215 -0.21278058 0 0 Z " fill="#B1ACBC" transform="translate(135,217)"/>
<path d="M0 0 C1.32 0.33 2.64 0.66 4 1 C4 1.66 4 2.32 4 3 C4.66 3.33 5.32 3.66 6 4 C5.01 5.485 5.01 5.485 4 7 C0 2.25 0 2.25 0 0 Z " fill="#798EA9" transform="translate(6,58)"/>
<path d="M0 0 C0.33 0.66 0.66 1.32 1 2 C1.66 2 2.32 2 3 2 C3 2.66 3 3.32 3 4 C3.66 4 4.32 4 5 4 C4.34 5.32 3.68 6.64 3 8 C0 3.375 0 3.375 0 0 Z " fill="#8C93AB" transform="translate(81,193)"/>
<path d="M0 0 C4 4.625 4 4.625 4 8 C2 6.8125 2 6.8125 0 5 C-0.25 2.3125 -0.25 2.3125 0 0 Z " fill="#7D82A0" transform="translate(99,189)"/>
<path d="M0 0 C0.99 0.33 1.98 0.66 3 1 C2.67 1.66 2.34 2.32 2 3 C1.34 2.01 0.68 1.02 0 0 Z " fill="#000000" transform="translate(89,67)"/>
<path d="M0 0 C0.66 0.33 1.32 0.66 2 1 C1.01 1 0.02 1 -1 1 C-0.67 0.67 -0.34 0.34 0 0 Z " fill="#000000" transform="translate(143,213)"/>
<path d="M0 0 C0.66 0.33 1.32 0.66 2 1 C1.01 1 0.02 1 -1 1 C-0.67 0.67 -0.34 0.34 0 0 Z " fill="#000000" transform="translate(14,8)"/>
<path d="M0 0 C0.66 0.66 1.32 1.32 2 2 C1.34 2 0.68 2 0 2 C0 1.34 0 0.68 0 0 Z " fill="#000000" transform="translate(104,193)"/>
<path d="M0 0 C0.99 0.495 0.99 0.495 2 1 C1.01 1.495 1.01 1.495 0 2 C0 1.34 0 0.68 0 0 Z " fill="#000000" transform="translate(139,59)"/>
<path d="M0 0 C2 1 2 1 2 1 Z " fill="#000000" transform="translate(98,216)"/>
<path d="" fill="#000000" transform="translate(0,0)"/>
<path d="" fill="#000000" transform="translate(0,0)"/>
<path d="" fill="#000000" transform="translate(0,0)"/>
<path d="" fill="#000000" transform="translate(0,0)"/>
<path d="" fill="#000000" transform="translate(0,0)"/>
<path d="" fill="#000000" transform="translate(0,0)"/>
<path d="M0 0 C2 1 2 1 2 1 Z " fill="#000000" transform="translate(112,188)"/>
<path d="" fill="#000000" transform="translate(0,0)"/>
<path d="M0 0 C2 1 2 1 2 1 Z " fill="#000000" transform="translate(126,187)"/>
<path d="" fill="#000000" transform="translate(0,0)"/>
<path d="" fill="#000000" transform="translate(0,0)"/>
<path d="M0 0 C2 1 2 1 2 1 Z " fill="#000000" transform="translate(215,76)"/>
<path d="M0 0 C2 1 2 1 2 1 Z " fill="#000000" transform="translate(20,75)"/>
<path d="M0 0 C2 1 2 1 2 1 Z " fill="#000000" transform="translate(17,73)"/>
<path d="" fill="#000000" transform="translate(0,0)"/>
<path d="" fill="#000000" transform="translate(0,0)"/>
<path d="M0 0 C2 1 2 1 2 1 Z " fill="#000000" transform="translate(149,66)"/>
<path d="" fill="#000000" transform="translate(0,0)"/>
<path d="M0 0 C2 1 2 1 2 1 Z " fill="#000000" transform="translate(99,59)"/>
<path d="M0 0 C2 1 2 1 2 1 Z " fill="#000000" transform="translate(143,56)"/>
<path d="M0 0 C2 1 2 1 2 1 Z " fill="#000000" transform="translate(209,55)"/>
<path d="" fill="#000000" transform="translate(0,0)"/>
<path d="" fill="#000000" transform="translate(0,0)"/>
<path d="" fill="#000000" transform="translate(0,0)"/>
<path d="" fill="#000000" transform="translate(0,0)"/>
<path d="M0 0 C2 1 2 1 2 1 Z " fill="#000000" transform="translate(128,40)"/>
<path d="M0 0 C2 1 2 1 2 1 Z " fill="#000000" transform="translate(134,36)"/>
<path d="M0 0 C2 1 2 1 2 1 Z " fill="#000000" transform="translate(210,26)"/>
<path d="" fill="#000000" transform="translate(0,0)"/>
<path d="" fill="#000000" transform="translate(0,0)"/>
<path d="M0 0 C2 1 2 1 2 1 Z " fill="#000000" transform="translate(18,5)"/>
<path d="" fill="#000000" transform="translate(0,0)"/>
<path d="" fill="#000000" transform="translate(0,0)"/>
<path d="" fill="#000000" transform="translate(0,0)"/>
<path d="" fill="#000000" transform="translate(0,0)"/>
<path d="" fill="#000000" transform="translate(0,0)"/>
<path d="" fill="#000000" transform="translate(0,0)"/>
<path d="" fill="#000000" transform="translate(0,0)"/>
<path d="" fill="#008000" transform="translate(0,0)"/>
<path d="" fill="#000000" transform="translate(0,0)"/>
<path d="" fill="#005555" transform="translate(0,0)"/>
<path d="" fill="#000000" transform="translate(0,0)"/>
<path d="" fill="#000000" transform="translate(0,0)"/>
<path d="" fill="#008000" transform="translate(0,0)"/>
<path d="" fill="#000000" transform="translate(0,0)"/>
<path d="" fill="#005500" transform="translate(0,0)"/>
<path d="" fill="#008000" transform="translate(0,0)"/>
<path d="" fill="#555555" transform="translate(0,0)"/>
<path d="" fill="#000000" transform="translate(0,0)"/>
<path d="" fill="#555555" transform="translate(0,0)"/>
<path d="" fill="#000000" transform="translate(0,0)"/>
<path d="" fill="#008080" transform="translate(0,0)"/>
<path d="" fill="#000000" transform="translate(0,0)"/>
<path d="" fill="#008000" transform="translate(0,0)"/>
<path d="" fill="#000000" transform="translate(0,0)"/>
<path d="" fill="#000000" transform="translate(0,0)"/>
<path d="" fill="#808080" transform="translate(0,0)"/>
<path d="" fill="#000000" transform="translate(0,0)"/>
<path d="" fill="#808080" transform="translate(0,0)"/>
<path d="" fill="#808080" transform="translate(0,0)"/>
<path d="" fill="#808080" transform="translate(0,0)"/>
<path d="" fill="#000000" transform="translate(0,0)"/>
<path d="" fill="#000000" transform="translate(0,0)"/>
<path d="" fill="#000000" transform="translate(0,0)"/>
<path d="" fill="#000000" transform="translate(0,0)"/>
<path d="" fill="#000000" transform="translate(0,0)"/>
<path d="" fill="#008080" transform="translate(0,0)"/>
<path d="" fill="#808080" transform="translate(0,0)"/>
<path d="" fill="#000000" transform="translate(0,0)"/>
<path d="" fill="#000000" transform="translate(0,0)"/>
<path d="" fill="#000000" transform="translate(0,0)"/>
<path d="" fill="#000000" transform="translate(0,0)"/>
<path d="" fill="#000000" transform="translate(0,0)"/>
<path d="" fill="#000000" transform="translate(0,0)"/>
<path d="" fill="#000000" transform="translate(0,0)"/>
<path d="" fill="#808080" transform="translate(0,0)"/>
<path d="" fill="#000000" transform="translate(0,0)"/>
<path d="" fill="#000000" transform="translate(0,0)"/>
<path d="" fill="#000000" transform="translate(0,0)"/>
<path d="" fill="#000000" transform="translate(0,0)"/>
<path d="" fill="#000000" transform="translate(0,0)"/>
<path d="" fill="#000000" transform="translate(0,0)"/>
<path d="" fill="#000000" transform="translate(0,0)"/>
<path d="" fill="#000000" transform="translate(0,0)"/>
<path d="" fill="#000000" transform="translate(0,0)"/>
<path d="" fill="#000000" transform="translate(0,0)"/>
<path d="" fill="#000000" transform="translate(0,0)"/>
<path d="" fill="#555555" transform="translate(0,0)"/>
<path d="" fill="#000000" transform="translate(0,0)"/>
<path d="" fill="#000000" transform="translate(0,0)"/>
<path d="" fill="#000000" transform="translate(0,0)"/>
<path d="" fill="#000000" transform="translate(0,0)"/>
<path d="" fill="#000000" transform="translate(0,0)"/>
<path d="" fill="#000000" transform="translate(0,0)"/>
<path d="" fill="#000000" transform="translate(0,0)"/>
<path d="" fill="#000000" transform="translate(0,0)"/>
<path d="" fill="#000000" transform="translate(0,0)"/>
<path d="" fill="#000000" transform="translate(0,0)"/>
<path d="" fill="#00FFFF" transform="translate(0,0)"/>
<path d="" fill="#000000" transform="translate(0,0)"/>
<path d="" fill="#000000" transform="translate(0,0)"/>
<path d="" fill="#808080" transform="translate(0,0)"/>
<path d="" fill="#000000" transform="translate(0,0)"/>
<path d="" fill="#808080" transform="translate(0,0)"/>
<path d="" fill="#000000" transform="translate(0,0)"/>
<path d="" fill="#008000" transform="translate(0,0)"/>
<path d="" fill="#008080" transform="translate(0,0)"/>
<path d="" fill="#00FF00" transform="translate(0,0)"/>
<path d="" fill="#000000" transform="translate(0,0)"/>
<path d="" fill="#000000" transform="translate(0,0)"/>
<path d="" fill="#000000" transform="translate(0,0)"/>
<path d="" fill="#000000" transform="translate(0,0)"/>
<path d="" fill="#008000" transform="translate(0,0)"/>
<path d="" fill="#000000" transform="translate(0,0)"/>
<path d="" fill="#000000" transform="translate(0,0)"/>
<path d="" fill="#000000" transform="translate(0,0)"/>
<path d="" fill="#000000" transform="translate(0,0)"/>
<path d="" fill="#000000" transform="translate(0,0)"/>
<path d="" fill="#000000" transform="translate(0,0)"/>
<path d="" fill="#000000" transform="translate(0,0)"/>
<path d="" fill="#000000" transform="translate(0,0)"/>
<path d="" fill="#000000" transform="translate(0,0)"/>
<path d="" fill="#008000" transform="translate(0,0)"/>
<path d="" fill="#000000" transform="translate(0,0)"/>
<path d="" fill="#000000" transform="translate(0,0)"/>
<path d="" fill="#008080" transform="translate(0,0)"/>
<path d="" fill="#000000" transform="translate(0,0)"/>
<path d="" fill="#808080" transform="translate(0,0)"/>
<path d="" fill="#000000" transform="translate(0,0)"/>
<path d="" fill="#000000" transform="translate(0,0)"/>
<path d="" fill="#000000" transform="translate(0,0)"/>
<path d="" fill="#008080" transform="translate(0,0)"/>
<path d="" fill="#000000" transform="translate(0,0)"/>
<path d="" fill="#000000" transform="translate(0,0)"/>
<path d="" fill="#000000" transform="translate(0,0)"/>
<path d="" fill="#000000" transform="translate(0,0)"/>
<path d="" fill="#000000" transform="translate(0,0)"/>
<path d="" fill="#000000" transform="translate(0,0)"/>
<path d="" fill="#000000" transform="translate(0,0)"/>
<path d="" fill="#000000" transform="translate(0,0)"/>
<path d="" fill="#000000" transform="translate(0,0)"/>
<path d="" fill="#808080" transform="translate(0,0)"/>
<path d="" fill="#000000" transform="translate(0,0)"/>
<path d="" fill="#000000" transform="translate(0,0)"/>
<path d="" fill="#000000" transform="translate(0,0)"/>
<path d="" fill="#000000" transform="translate(0,0)"/>
<path d="" fill="#000000" transform="translate(0,0)"/>
<path d="" fill="#000000" transform="translate(0,0)"/>
<path d="" fill="#000000" transform="translate(0,0)"/>
<path d="" fill="#000000" transform="translate(0,0)"/>
<path d="" fill="#000000" transform="translate(0,0)"/>
<path d="" fill="#008000" transform="translate(0,0)"/>
<path d="" fill="#000000" transform="translate(0,0)"/>
<path d="" fill="#000000" transform="translate(0,0)"/>
<path d="" fill="#000000" transform="translate(0,0)"/>
<path d="" fill="#000000" transform="translate(0,0)"/>
<path d="" fill="#000000" transform="translate(0,0)"/>
<path d="" fill="#000000" transform="translate(0,0)"/>
<path d="" fill="#000000" transform="translate(0,0)"/>
<path d="" fill="#000000" transform="translate(0,0)"/>
<path d="" fill="#00FF00" transform="translate(0,0)"/>
<path d="" fill="#000000" transform="translate(0,0)"/>
<path d="" fill="#008000" transform="translate(0,0)"/>
<path d="" fill="#000000" transform="translate(0,0)"/>
<path d="" fill="#000000" transform="translate(0,0)"/>
<path d="" fill="#000000" transform="translate(0,0)"/>
<path d="" fill="#008000" transform="translate(0,0)"/>
<path d="" fill="#000000" transform="translate(0,0)"/>
<path d="" fill="#000000" transform="translate(0,0)"/>
<path d="" fill="#000000" transform="translate(0,0)"/>
<path d="" fill="#00FF00" transform="translate(0,0)"/>
<path d="" fill="#000000" transform="translate(0,0)"/>
<path d="" fill="#000000" transform="translate(0,0)"/>
<path d="" fill="#000000" transform="translate(0,0)"/>
<path d="" fill="#000000" transform="translate(0,0)"/>
<path d="" fill="#000000" transform="translate(0,0)"/>
<path d="" fill="#000000" transform="translate(0,0)"/>
<path d="" fill="#000000" transform="translate(0,0)"/>
<path d="" fill="#008080" transform="translate(0,0)"/>
<path d="" fill="#000000" transform="translate(0,0)"/>
<path d="" fill="#000000" transform="translate(0,0)"/>
<path d="" fill="#000000" transform="translate(0,0)"/>
<path d="" fill="#008080" transform="translate(0,0)"/>
<path d="" fill="#000000" transform="translate(0,0)"/>
<path d="" fill="#808080" transform="translate(0,0)"/>
<path d="" fill="#000000" transform="translate(0,0)"/>
<path d="" fill="#000000" transform="translate(0,0)"/>
<path d="" fill="#000000" transform="translate(0,0)"/>
<path d="" fill="#000000" transform="translate(0,0)"/>
<path d="" fill="#000000" transform="translate(0,0)"/>
<path d="" fill="#000000" transform="translate(0,0)"/>
<path d="" fill="#000000" transform="translate(0,0)"/>
<path d="" fill="#000000" transform="translate(0,0)"/>
<path d="" fill="#000000" transform="translate(0,0)"/>
<path d="" fill="#000000" transform="translate(0,0)"/>
<path d="" fill="#000000" transform="translate(0,0)"/>
<path d="" fill="#000000" transform="translate(0,0)"/>
<path d="" fill="#000000" transform="translate(0,0)"/>
<path d="" fill="#000000" transform="translate(0,0)"/>
<path d="" fill="#000000" transform="translate(0,0)"/>
<path d="" fill="#000000" transform="translate(0,0)"/>
<path d="" fill="#000000" transform="translate(0,0)"/>
<path d="" fill="#000000" transform="translate(0,0)"/>
<path d="" fill="#000000" transform="translate(0,0)"/>
<path d="" fill="#000000" transform="translate(0,0)"/>
<path d="" fill="#000000" transform="translate(0,0)"/>
<path d="" fill="#000000" transform="translate(0,0)"/>
<path d="" fill="#000000" transform="translate(0,0)"/>
<path d="" fill="#000000" transform="translate(0,0)"/>
<path d="" fill="#000000" transform="translate(0,0)"/>
<path d="" fill="#000000" transform="translate(0,0)"/>
<path d="" fill="#000000" transform="translate(0,0)"/>
<path d="" fill="#000000" transform="translate(0,0)"/>
<path d="" fill="#000000" transform="translate(0,0)"/>
<path d="" fill="#000000" transform="translate(0,0)"/>
<path d="" fill="#008000" transform="translate(0,0)"/>
<path d="" fill="#80FF80" transform="translate(0,0)"/>
<path d="" fill="#000000" transform="translate(0,0)"/>
<path d="" fill="#000000" transform="translate(0,0)"/>
<path d="" fill="#00FF00" transform="translate(0,0)"/>
<path d="" fill="#000000" transform="translate(0,0)"/>
<path d="" fill="#000000" transform="translate(0,0)"/>
<path d="" fill="#008000" transform="translate(0,0)"/>
<path d="" fill="#000000" transform="translate(0,0)"/>
<path d="" fill="#000000" transform="translate(0,0)"/>
<path d="" fill="#000000" transform="translate(0,0)"/>
<path d="" fill="#008000" transform="translate(0,0)"/>
<path d="" fill="#008000" transform="translate(0,0)"/>
<path d="" fill="#000000" transform="translate(0,0)"/>
<path d="" fill="#000000" transform="translate(0,0)"/>
<path d="" fill="#000000" transform="translate(0,0)"/>
<path d="" fill="#000000" transform="translate(0,0)"/>
<path d="" fill="#000000" transform="translate(0,0)"/>
<path d="" fill="#000000" transform="translate(0,0)"/>
<path d="" fill="#000000" transform="translate(0,0)"/>
<path d="" fill="#000000" transform="translate(0,0)"/>
</svg>
